<svg xmlns="http://www.w3.org/2000/svg" width="1240" height="1240"><path d="M507.236 202.833c-.985.626-1.206 7.954-1 33.235l.264 32.432 116.5.274c64.075.151 117.513.03 118.75-.269l2.25-.543v-31.781c0-23.385-.317-32.098-1.2-32.981-.856-.856-7.148-1.2-21.965-1.2-19.684 0-20.82.103-21.826 1.984-.656 1.225-1.025 9.481-.965 21.588.089 17.856-.065 19.727-1.723 20.984-1.428 1.082-6.896 1.382-25.321 1.39-20.747.008-23.762-.193-25.733-1.718-2.169-1.678-2.241-2.335-2.5-22.728l-.267-21h-35l-.271 20.458c-.365 27.517 2.486 25.042-28.847 25.042-23.945 0-24.289-.03-25.825-2.223-1.276-1.82-1.557-5.629-1.557-21.065 0-11.077-.427-19.641-1.035-20.778-.972-1.815-2.279-1.933-21.25-1.919-11.118.009-20.784.377-21.479.818M476 280.93c-1.925.395-5.358 1.679-7.628 2.853-4.376 2.261-12.372 10.572-12.372 12.858 0 .747-.401 1.359-.891 1.359-1.519 0-2.327 6.872-2.772 23.59-.344 12.969-.156 16.316.974 17.253 1.055.876 43.559 1.1 172.295.91L796.5 339.5v-18.573c0-17.831-.1-18.77-2.5-23.5-3.43-6.759-6.454-9.962-12.954-13.72L775.5 280.5l-148-.145c-81.4-.079-149.575.179-151.5.575m21.329 71.654c-.334.872-.367 6.291-.074 12.044.468 9.166.858 10.927 3.151 14.237 1.44 2.077 4.455 4.757 6.7 5.956l4.083 2.179h113.283c123.439 0 117.125.292 122.656-5.668 4.371-4.711 4.872-6.639 4.872-18.766V351H624.969c-114.997 0-127.089.15-127.64 1.584m-164.829 7.66c-8.606 2.958-16.419 7.664-22 13.25-7.265 7.272-8.394 8.741-11.147 14.509-4.299 9.005-4.809 11.39-4.809 22.497 0 11.075.489 13.378 4.778 22.5 5.599 11.91 18.392 23.486 29.692 26.866 2.467.738 5.52 1.745 6.783 2.238 3.26 1.272 17.886 1.111 22.132-.243 11.578-3.691 17.122-6.898 24.071-13.925 8.723-8.821 9.047-9.316 14.02-21.436 3.031-7.387 2.986-24.89-.082-32.25-2.479-5.946-3.657-8.162-7.11-13.37-6.299-9.501-16.372-16.729-28.899-20.737-4.353-1.393-23.286-1.323-27.429.101m556-.244c-.34.55-1.52 1-2.622 1-4.511 0-15.206 6.398-21.763 13.019-7.145 7.215-10.387 12.794-13.976 24.052-1.407 4.412-1.516 23.578-.139 24.429.55.34 1 1.52 1 2.622 0 1.102 1.434 5.013 3.187 8.691 5.228 10.972 16.827 21.348 29.313 26.221 8.014 3.128 21.92 3.704 30.5 1.264 13.885-3.95 26.67-14.425 33.056-27.083 4.075-8.079 5.127-12.006 5.68-21.215 1.423-23.676-14.305-45.103-38.807-52.868-4.428-1.404-24.579-1.508-25.429-.132m-361.057 39.287c-.271.707-.369 8.92-.218 18.25l.275 16.963 97.132.255 97.132.255.604-2.255c1.174-4.379.701-32.286-.568-33.555-1.819-1.819-193.658-1.734-194.357.087m-.46 48.745c-.598 1.117-1.527 5.505-2.066 9.75-1.445 11.4-2.678 20.328-3.277 23.718-.718 4.07-10.997 76.675-14.086 99.5-1.918 14.17-3.992 28.873-5.642 40-.531 3.575-1.403 9.538-1.938 13.25-.536 3.712-1.416 9.788-1.955 13.5-.54 3.712-1.424 9.9-1.965 13.75-1 7.12-2.406 16.794-4.142 28.5-2.048 13.802-2.911 19.764-3.912 27-.57 4.125-1.463 10.425-1.983 14a11447.707 11447.707 0 01-4.105 28c-.531 3.575-1.403 9.538-1.938 13.25-.536 3.712-1.416 9.788-1.955 13.5a3310.474 3310.474 0 00-3.938 27.75c-.526 3.85-1.257 8.442-1.625 10.204-.585 2.801-.373 3.277 1.687 3.779 1.296.316 19.232.449 39.857.296l37.5-.279.5-160.718c.469-150.852.607-160.842 2.24-162.75 1.718-2.006 2.618-2.032 69.55-2.032 51.408 0 68.1.29 69.01 1.2.923.923 1.2 38.14 1.2 161.429 0 144.329.156 160.384 1.571 161.8 1.376 1.375 6.478 1.571 40.878 1.571 33.193 0 39.494-.226 40.515-1.456.698-.842.86-2.002.383-2.75-.455-.712-1.177-4.444-1.605-8.294-.745-6.697-1.408-11.478-3.742-27-1.415-9.407-3.779-25.809-6.019-41.75A2797.19 2797.19 0 00762 719.5c-1.415-9.407-3.779-25.809-6.019-41.75-.56-3.987-1.448-10.175-1.973-13.75l-1.912-13c-.525-3.575-1.469-10.1-2.096-14.5s-1.571-10.925-2.096-14.5c-.526-3.575-1.395-9.538-1.93-13.25l-1.948-13.5c-.535-3.712-1.404-9.675-1.93-13.25-.525-3.575-1.469-10.1-2.096-14.5s-1.527-10.7-2-14c-.473-3.3-1.373-9.6-2-14l-1.996-14c-.471-3.3-1.316-9.6-1.878-14-2.526-19.779-9.064-63.591-9.624-64.497-.408-.659-33.824-1.003-97.526-1.003-96.385 0-96.911.011-97.993 2.032M311.21 472.25l.29 8.25 34 .242c18.7.133 34.624-.156 35.387-.643 1.577-1.008 2.679-9.706 1.716-13.545-.764-3.046-2.232-3.191-5.603-.554-1.375 1.076-3.288 1.966-4.25 1.978-.962.012-1.75.472-1.75 1.022s-1.098 1-2.441 1c-1.343 0-2.719.45-3.059 1-.34.55-2.14 1-4 1-1.86 0-3.66.45-4 1-.348.563-5.157 1-11 1s-10.652-.437-11-1c-.34-.55-2.14-1-4-1-1.86 0-3.66-.45-4-1-.34-.55-1.449-1-2.465-1-1.996 0-10.323-4.022-10.868-5.25-.184-.413-.989-.75-1.791-.75-1.182 0-1.402 1.558-1.166 8.25m553.79-.367c0 7.33.158 7.926 2.25 8.487 4.015 1.076 65.737.707 67.816-.405 1.625-.87 1.934-2.137 1.934-7.941 0-3.798-.406-7.157-.902-7.463-.496-.307-3.466.792-6.601 2.441-3.135 1.649-6.528 2.998-7.54 2.998-1.011 0-2.086.4-2.389.89-.931 1.507-7.594 2.362-18.568 2.381-14.264.025-16.166-.394-27.89-6.139-3.515-1.723-6.778-3.132-7.25-3.132-.473 0-.86 3.548-.86 7.883M228.228 510.75l.272 18.75h236l.272-18.75.272-18.75H227.956l.272 18.75m554 0l.272 18.75 117.393.254c85.92.186 117.756-.048 118.75-.872 1.05-.872 1.357-5.168 1.357-19.004V492H781.956l.272 18.75m-217.978 2.912c-.993.401-1.25 32.702-1.25 156.814 0 141.612.149 156.367 1.582 156.917.87.334 27.555.607 59.3.607 43.558 0 58.012-.294 58.918-1.2.923-.923 1.2-37.132 1.2-156.893 0-141.049-.149-155.75-1.582-156.3-1.89-.725-116.366-.672-118.168.055m-305.641 28.914c-1.668 4.348.66 14.163 4.126 17.392 2.156 2.008 3.137 2.032 83.535 2.032 80.545 0 81.375-.02 83.546-2.043 3.244-3.022 5.314-8.817 4.979-13.938l-.295-4.519-87.641-.255c-79.27-.231-87.699-.104-88.25 1.331M813 547.386c0 3.512.623 7.587 1.385 9.056 3.011 5.802-1.86 5.492 86.814 5.526l81.699.032 2.551-3.344c2.185-2.865 2.551-4.37 2.551-10.5V541H813v6.386m-532.965 27.548c-1.584 2.961-1.329 18.577.326 19.951.988.82 19.282 1.059 66.75.872l65.389-.257.287-10.418c.211-7.662-.054-10.634-1-11.235-.708-.449-30.409-.823-66.002-.832-62.966-.015-64.743.037-65.75 1.919m555.185-.019c-.396 1.062-.495 6.128-.22 11.258l.5 9.327h131v-22l-65.28-.257c-63.697-.251-65.297-.211-66 1.672M279.677 607.75c-.683 1.164-2.359 12.06-7.189 46.75-2.451 17.6-4.904 35.15-5.451 39-.547 3.85-1.227 8.8-1.509 11-.531 4.133-1.959 14.178-3.624 25.5-.526 3.575-1.403 9.65-1.949 13.5-.926 6.534-1.36 9.511-3.859 26.5-.525 3.575-1.469 10.1-2.096 14.5s-1.571 10.925-2.096 14.5c-2.499 16.989-2.933 19.966-3.859 26.5-.546 3.85-1.423 9.925-1.949 13.5-.525 3.575-1.482 10.1-2.126 14.5-.644 4.4-1.238 10.025-1.32 12.5l-.15 4.5 100.892.255c75.517.191 101.244-.038 102.292-.908 1.135-.942 1.319-4.499.97-18.755-.237-9.675-.959-20.967-1.605-25.092-1.179-7.534-1.938-12.693-4.049-27.5-.627-4.4-1.571-10.925-2.096-14.5-.526-3.575-1.403-9.65-1.949-13.5-.546-3.85-1.434-10.038-1.974-13.75-.539-3.712-1.419-9.788-1.955-13.5-.535-3.712-1.447-9.9-2.026-13.75-.579-3.85-1.499-10.15-2.045-14-.546-3.85-1.434-10.038-1.974-13.75-.539-3.712-1.431-9.9-1.981-13.75-1.888-13.217-2.949-20.511-4-27.5-1.688-11.226-3.749-25.647-5.932-41.5-.492-3.575-1.211-7.737-1.598-9.25l-.703-2.75h-66.325c-36.478 0-66.522.337-66.765.75m553.847.5c-.227.688-.651 3.5-.941 6.25-.29 2.75-.982 8.15-1.537 12-.555 3.85-1.467 10.263-2.027 14.25A2960.456 2960.456 0 01825 668.5c-.579 3.85-1.499 10.15-2.045 14-.546 3.85-1.434 10.038-1.974 13.75a6283.612 6283.612 0 00-4 28A2797.19 2797.19 0 01813 751.5a3782.394 3782.394 0 00-3.963 27l-2 14c-.55 3.85-1.442 10.15-1.983 14a982.898 982.898 0 01-2.177 14.5c-.657 4.125-1.235 16.95-1.286 28.5l-.091 21 100.892.255c75.643.191 101.243-.037 102.295-.91.815-.677 1.107-1.832.696-2.755-.389-.875-1.097-4.515-1.572-8.09-.922-6.941-2.24-16.315-3.83-27.25-.539-3.712-1.415-9.788-1.946-13.5a6024.212 6024.212 0 00-4.123-28.25 3712.857 3712.857 0 01-3.931-27.25c-.56-3.987-1.46-10.288-2-14-.539-3.712-1.419-9.788-1.955-13.5-.535-3.712-1.404-9.675-1.93-13.25-.525-3.575-1.469-10.1-2.096-14.5s-1.527-10.7-2-14a22114.68 22114.68 0 01-3.99-28c-.467-3.3-1.355-9.375-1.973-13.5-.618-4.125-1.348-9.3-1.622-11.5-.274-2.2-1.38-10.209-2.457-17.798-1.077-7.589-1.958-14.226-1.958-14.75 0-.593-25.265-.952-67.031-.952-52.738 0-67.12.267-67.445 1.25m-373.297 248.5l.273 17.75h329l.273-17.75.273-17.75H459.954l.273 17.75m-226.143 25.649c-.75.903-1.059 4.715-.873 10.75l.289 9.351 87.142.255 87.142.256 3.222-5.021c3.097-4.826 11.352-12.99 13.135-12.99.472 0 .859-.9.859-2 0-1.986-.667-2-94.878-2-80.08 0-95.058.218-96.038 1.399m587.916.596c0 1.103.563 2.007 1.25 2.01 1.591.006 11.795 10.569 14.29 14.793l1.891 3.202h174.637l-.284-10.75-.284-10.75-95.75-.255c-95.248-.254-95.75-.245-95.75 1.75m-375.5 4.155c-12.471 4.124-22.102 12.293-27.529 23.35l-3.435 7-.018 26-.018 26 208.94.252c166.491.201 209.101-.002 209.734-1 1.049-1.652.971-36.242-.103-45.506-1.882-16.239-12.662-29.248-29.267-35.318-5.139-1.878-9.828-1.926-180.29-1.849-112.847.051-176.08.431-178.014 1.071m-224 28.087c-1.65.567-4.125 1.533-5.5 2.147-3.703 1.653-13 11.365-13 13.579 0 1.056-.45 2.197-1 2.537-.607.375-1 7.677-1 18.559V970h198.932l.431-24.25c.237-13.337.59-25.825.784-27.75l.353-3.5-88.5-.146c-58.493-.097-89.517.202-91.5.883m622.515 25.513c.009 14.712.374 27.315.812 28.005.632.995 21.346 1.202 100.235 1l99.438-.255.276-15.924c.173-9.93-.11-16.31-.75-16.95-.564-.564-1.026-1.767-1.026-2.672 0-4.4-7.176-13.006-13.5-16.189-7.392-3.721-8.539-3.765-97.821-3.765H845l.015 26.75" fill="undefined" fill-rule="evenodd"/></svg>