<?xml version="1.0" encoding="iso-8859-1"?>
<!-- Generator: Adobe Illustrator 19.0.0, SVG Export Plug-In . SVG Version: 6.00 Build 0)  -->
<svg version="1.1" id="Layer_1" xmlns="http://www.w3.org/2000/svg" xmlns:xlink="http://www.w3.org/1999/xlink" x="0px" y="0px"
	 viewBox="0 0 496.158 496.158" style="enable-background:new 0 0 496.158 496.158;" xml:space="preserve">
<rect x="96.699" y="96.699" style="fill:#6E4832;" width="302.75" height="302.75"/>
<rect x="96.699" y="96.699" style="fill:none;stroke:#6E4832;stroke-width:2.294;stroke-linecap:round;stroke-linejoin:round;stroke-miterlimit:10;" width="302.75" height="302.75"/>
<rect x="107.219" y="108.269" style="fill:#F2EFED;" width="281.72" height="280.67"/>
<g>
	<rect x="248.069" y="108.289" style="fill:#262626;" width="28.19" height="28.09"/>
	<rect x="304.479" y="108.289" style="fill:#262626;" width="28.11" height="28.09"/>
	<rect x="360.779" y="108.289" style="fill:#262626;" width="28.15" height="28.09"/>
	<rect x="276.289" y="136.419" style="fill:#262626;" width="28.16" height="28.05"/>
	<rect x="332.639" y="136.419" style="fill:#262626;" width="28.1" height="28.05"/>
	<rect x="248.069" y="164.499" style="fill:#262626;" width="28.19" height="28.01"/>
	<rect x="304.479" y="164.499" style="fill:#262626;" width="28.11" height="28.01"/>
	<rect x="360.779" y="164.499" style="fill:#262626;" width="28.15" height="28.01"/>
	<rect x="276.289" y="192.559" style="fill:#262626;" width="28.16" height="27.999"/>
	<rect x="332.639" y="192.559" style="fill:#262626;" width="28.1" height="27.999"/>
	<rect x="248.069" y="220.599" style="fill:#262626;" width="28.19" height="28.04"/>
	<rect x="304.479" y="220.599" style="fill:#262626;" width="28.11" height="28.04"/>
	<rect x="360.779" y="220.599" style="fill:#262626;" width="28.15" height="28.04"/>
	<rect x="107.189" y="248.639" style="fill:#262626;" width="28.19" height="28.09"/>
	<rect x="163.609" y="248.639" style="fill:#262626;" width="28.11" height="28.09"/>
	<rect x="219.909" y="248.639" style="fill:#262626;" width="28.15" height="28.09"/>
	<rect x="135.419" y="276.759" style="fill:#262626;" width="28.16" height="28.05"/>
	<rect x="191.769" y="276.759" style="fill:#262626;" width="28.1" height="28.05"/>
	<rect x="107.189" y="304.849" style="fill:#262626;" width="28.19" height="28.01"/>
	<rect x="163.609" y="304.849" style="fill:#262626;" width="28.11" height="28.01"/>
	<rect x="219.909" y="304.849" style="fill:#262626;" width="28.15" height="28.01"/>
	<rect x="135.419" y="332.899" style="fill:#262626;" width="28.16" height="27.999"/>
	<rect x="191.769" y="332.899" style="fill:#262626;" width="28.1" height="27.999"/>
	<rect x="107.189" y="360.949" style="fill:#262626;" width="28.19" height="28.04"/>
	<rect x="163.609" y="360.949" style="fill:#262626;" width="28.11" height="28.04"/>
	<rect x="219.909" y="360.949" style="fill:#262626;" width="28.15" height="28.04"/>
	<rect x="107.199" y="108.279" style="fill:#262626;" width="140.84" height="140.37"/>
</g>
<g>
	<rect x="219.839" y="108.279" style="fill:#F2EFED;" width="28.18" height="28.09"/>
	<rect x="219.839" y="164.499" style="fill:#F2EFED;" width="28.18" height="28.01"/>
	<rect x="219.839" y="220.599" style="fill:#F2EFED;" width="28.18" height="28.05"/>
	<rect x="191.649" y="136.409" style="fill:#F2EFED;" width="28.15" height="28.06"/>
	<rect x="191.649" y="192.559" style="fill:#F2EFED;" width="28.15" height="28"/>
	<rect x="163.519" y="108.279" style="fill:#F2EFED;" width="28.1" height="28.09"/>
	<rect x="163.519" y="164.499" style="fill:#F2EFED;" width="28.1" height="28.01"/>
	<rect x="163.519" y="220.599" style="fill:#F2EFED;" width="28.1" height="28.05"/>
	<rect x="135.379" y="136.409" style="fill:#F2EFED;" width="28.09" height="28.06"/>
	<rect x="135.379" y="192.559" style="fill:#F2EFED;" width="28.09" height="28"/>
	<rect x="107.199" y="108.279" style="fill:#F2EFED;" width="28.14" height="28.09"/>
	<rect x="107.199" y="164.499" style="fill:#F2EFED;" width="28.14" height="28.01"/>
	<rect x="107.199" y="220.599" style="fill:#F2EFED;" width="28.14" height="28.05"/>
</g>
<rect x="248.059" y="248.649" style="fill:#262626;" width="140.84" height="140.37"/>
<g>
	<rect x="360.699" y="248.649" style="fill:#F2EFED;" width="28.18" height="28.09"/>
	<rect x="360.699" y="304.869" style="fill:#F2EFED;" width="28.18" height="28.01"/>
	<rect x="360.699" y="360.969" style="fill:#F2EFED;" width="28.18" height="28.05"/>
	<rect x="332.519" y="276.779" style="fill:#F2EFED;" width="28.15" height="28.06"/>
	<rect x="332.519" y="332.929" style="fill:#F2EFED;" width="28.15" height="28"/>
	<rect x="304.379" y="248.649" style="fill:#F2EFED;" width="28.1" height="28.09"/>
	<rect x="304.379" y="304.869" style="fill:#F2EFED;" width="28.1" height="28.01"/>
	<rect x="304.379" y="360.969" style="fill:#F2EFED;" width="28.1" height="28.05"/>
	<rect x="276.239" y="276.779" style="fill:#F2EFED;" width="28.09" height="28.06"/>
	<rect x="276.239" y="332.929" style="fill:#F2EFED;" width="28.09" height="28"/>
	<rect x="248.059" y="248.649" style="fill:#F2EFED;" width="28.14" height="28.09"/>
	<rect x="248.059" y="304.869" style="fill:#F2EFED;" width="28.14" height="28.01"/>
	<rect x="248.059" y="360.969" style="fill:#F2EFED;" width="28.14" height="28.05"/>
</g>
<g>
</g>
<g>
</g>
<g>
</g>
<g>
</g>
<g>
</g>
<g>
</g>
<g>
</g>
<g>
</g>
<g>
</g>
<g>
</g>
<g>
</g>
<g>
</g>
<g>
</g>
<g>
</g>
<g>
</g>
</svg>
