<?xml version="1.0" encoding="UTF-8" standalone="no"?>
<!-- Generator: Adobe Illustrator 19.0.0, SVG Export Plug-In . SVG Version: 6.00 Build 0)  -->

<svg
   xmlns:dc="http://purl.org/dc/elements/1.1/"
   xmlns:cc="http://creativecommons.org/ns#"
   xmlns:rdf="http://www.w3.org/1999/02/22-rdf-syntax-ns#"
   xmlns:svg="http://www.w3.org/2000/svg"
   xmlns="http://www.w3.org/2000/svg"
   xmlns:sodipodi="http://sodipodi.sourceforge.net/DTD/sodipodi-0.dtd"
   xmlns:inkscape="http://www.inkscape.org/namespaces/inkscape"
   version="1.1"
   id="Layer_1"
   x="0px"
   y="0px"
   viewBox="0 0 305.04401 305.04401"
   xml:space="preserve"
   sodipodi:docname="icon-chess-board-3.svg"
   width="305.04401"
   height="305.04401"
   inkscape:version="0.92.4 (fd57863, 2020-04-02)"><metadata
   id="metadata1165"><rdf:RDF><cc:Work
       rdf:about=""><dc:format>image/svg+xml</dc:format><dc:type
         rdf:resource="http://purl.org/dc/dcmitype/StillImage" /><dc:title></dc:title></cc:Work></rdf:RDF></metadata><defs
   id="defs1163" /><sodipodi:namedview
   pagecolor="#ffffff"
   bordercolor="#666666"
   borderopacity="1"
   objecttolerance="10"
   gridtolerance="10"
   guidetolerance="10"
   inkscape:pageopacity="0"
   inkscape:pageshadow="2"
   inkscape:window-width="1862"
   inkscape:window-height="1016"
   id="namedview1161"
   showgrid="false"
   inkscape:zoom="1.6889781"
   inkscape:cx="152.527"
   inkscape:cy="152.517"
   inkscape:window-x="58"
   inkscape:window-y="27"
   inkscape:window-maximized="1"
   inkscape:current-layer="Layer_1" />
<rect
   x="1.147"
   y="1.147"
   style="fill:#6e4832"
   width="302.75"
   height="302.75"
   id="rect1010" />
<rect
   x="1.147"
   y="1.147"
   style="fill:none;stroke:#6e4832;stroke-width:2.29399991;stroke-linecap:round;stroke-linejoin:round;stroke-miterlimit:10"
   width="302.75"
   height="302.75"
   id="rect1012" />
<rect
   x="11.667005"
   y="12.717"
   style="fill:#f2efed"
   width="281.72"
   height="280.67001"
   id="rect1014" />
<g
   id="g1070"
   transform="translate(-95.551998,-95.551998)">
	<rect
   x="248.069"
   y="108.289"
   style="fill:#262626"
   width="28.190001"
   height="28.09"
   id="rect1016" />
	<rect
   x="304.479"
   y="108.289"
   style="fill:#262626"
   width="28.110001"
   height="28.09"
   id="rect1018" />
	<rect
   x="360.77899"
   y="108.289"
   style="fill:#262626"
   width="28.15"
   height="28.09"
   id="rect1020" />
	<rect
   x="276.289"
   y="136.41901"
   style="fill:#262626"
   width="28.16"
   height="28.049999"
   id="rect1022" />
	<rect
   x="332.63901"
   y="136.41901"
   style="fill:#262626"
   width="28.1"
   height="28.049999"
   id="rect1024" />
	<rect
   x="248.069"
   y="164.49899"
   style="fill:#262626"
   width="28.190001"
   height="28.01"
   id="rect1026" />
	<rect
   x="304.479"
   y="164.49899"
   style="fill:#262626"
   width="28.110001"
   height="28.01"
   id="rect1028" />
	<rect
   x="360.77899"
   y="164.49899"
   style="fill:#262626"
   width="28.15"
   height="28.01"
   id="rect1030" />
	<rect
   x="276.289"
   y="192.55901"
   style="fill:#262626"
   width="28.16"
   height="27.999001"
   id="rect1032" />
	<rect
   x="332.63901"
   y="192.55901"
   style="fill:#262626"
   width="28.1"
   height="27.999001"
   id="rect1034" />
	<rect
   x="248.069"
   y="220.599"
   style="fill:#262626"
   width="28.190001"
   height="28.040001"
   id="rect1036" />
	<rect
   x="304.479"
   y="220.599"
   style="fill:#262626"
   width="28.110001"
   height="28.040001"
   id="rect1038" />
	<rect
   x="360.77899"
   y="220.599"
   style="fill:#262626"
   width="28.15"
   height="28.040001"
   id="rect1040" />
	<rect
   x="107.189"
   y="248.63901"
   style="fill:#262626"
   width="28.190001"
   height="28.09"
   id="rect1042" />
	<rect
   x="163.60899"
   y="248.63901"
   style="fill:#262626"
   width="28.110001"
   height="28.09"
   id="rect1044" />
	<rect
   x="219.909"
   y="248.63901"
   style="fill:#262626"
   width="28.15"
   height="28.09"
   id="rect1046" />
	<rect
   x="135.41901"
   y="276.759"
   style="fill:#262626"
   width="28.16"
   height="28.049999"
   id="rect1048" />
	<rect
   x="191.769"
   y="276.759"
   style="fill:#262626"
   width="28.1"
   height="28.049999"
   id="rect1050" />
	<rect
   x="107.189"
   y="304.849"
   style="fill:#262626"
   width="28.190001"
   height="28.01"
   id="rect1052" />
	<rect
   x="163.60899"
   y="304.849"
   style="fill:#262626"
   width="28.110001"
   height="28.01"
   id="rect1054" />
	<rect
   x="219.909"
   y="304.849"
   style="fill:#262626"
   width="28.15"
   height="28.01"
   id="rect1056" />
	<rect
   x="135.41901"
   y="332.89899"
   style="fill:#262626"
   width="28.16"
   height="27.999001"
   id="rect1058" />
	<rect
   x="191.769"
   y="332.89899"
   style="fill:#262626"
   width="28.1"
   height="27.999001"
   id="rect1060" />
	<rect
   x="107.189"
   y="360.94901"
   style="fill:#262626"
   width="28.190001"
   height="28.040001"
   id="rect1062" />
	<rect
   x="163.60899"
   y="360.94901"
   style="fill:#262626"
   width="28.110001"
   height="28.040001"
   id="rect1064" />
	<rect
   x="219.909"
   y="360.94901"
   style="fill:#262626"
   width="28.15"
   height="28.040001"
   id="rect1066" />
	<rect
   x="107.199"
   y="108.279"
   style="fill:#262626"
   width="140.84"
   height="140.37"
   id="rect1068" />
</g>
<g
   id="g1098"
   transform="translate(-95.551998,-95.551998)">
	<rect
   x="219.839"
   y="108.279"
   style="fill:#f2efed"
   width="28.18"
   height="28.09"
   id="rect1072" />
	<rect
   x="219.839"
   y="164.49899"
   style="fill:#f2efed"
   width="28.18"
   height="28.01"
   id="rect1074" />
	<rect
   x="219.839"
   y="220.599"
   style="fill:#f2efed"
   width="28.18"
   height="28.049999"
   id="rect1076" />
	<rect
   x="191.649"
   y="136.409"
   style="fill:#f2efed"
   width="28.15"
   height="28.059999"
   id="rect1078" />
	<rect
   x="191.649"
   y="192.55901"
   style="fill:#f2efed"
   width="28.15"
   height="28"
   id="rect1080" />
	<rect
   x="163.519"
   y="108.279"
   style="fill:#f2efed"
   width="28.1"
   height="28.09"
   id="rect1082" />
	<rect
   x="163.519"
   y="164.49899"
   style="fill:#f2efed"
   width="28.1"
   height="28.01"
   id="rect1084" />
	<rect
   x="163.519"
   y="220.599"
   style="fill:#f2efed"
   width="28.1"
   height="28.049999"
   id="rect1086" />
	<rect
   x="135.379"
   y="136.409"
   style="fill:#f2efed"
   width="28.09"
   height="28.059999"
   id="rect1088" />
	<rect
   x="135.379"
   y="192.55901"
   style="fill:#f2efed"
   width="28.09"
   height="28"
   id="rect1090" />
	<rect
   x="107.199"
   y="108.279"
   style="fill:#f2efed"
   width="28.139999"
   height="28.09"
   id="rect1092" />
	<rect
   x="107.199"
   y="164.49899"
   style="fill:#f2efed"
   width="28.139999"
   height="28.01"
   id="rect1094" />
	<rect
   x="107.199"
   y="220.599"
   style="fill:#f2efed"
   width="28.139999"
   height="28.049999"
   id="rect1096" />
</g>
<rect
   x="152.507"
   y="153.097"
   style="fill:#262626"
   width="140.84"
   height="140.37"
   id="rect1100" />
<g
   id="g1128"
   transform="translate(-95.551998,-95.551998)">
	<rect
   x="360.69901"
   y="248.649"
   style="fill:#f2efed"
   width="28.18"
   height="28.09"
   id="rect1102" />
	<rect
   x="360.69901"
   y="304.86899"
   style="fill:#f2efed"
   width="28.18"
   height="28.01"
   id="rect1104" />
	<rect
   x="360.69901"
   y="360.96899"
   style="fill:#f2efed"
   width="28.18"
   height="28.049999"
   id="rect1106" />
	<rect
   x="332.51901"
   y="276.77899"
   style="fill:#f2efed"
   width="28.15"
   height="28.059999"
   id="rect1108" />
	<rect
   x="332.51901"
   y="332.92899"
   style="fill:#f2efed"
   width="28.15"
   height="28"
   id="rect1110" />
	<rect
   x="304.379"
   y="248.649"
   style="fill:#f2efed"
   width="28.1"
   height="28.09"
   id="rect1112" />
	<rect
   x="304.379"
   y="304.86899"
   style="fill:#f2efed"
   width="28.1"
   height="28.01"
   id="rect1114" />
	<rect
   x="304.379"
   y="360.96899"
   style="fill:#f2efed"
   width="28.1"
   height="28.049999"
   id="rect1116" />
	<rect
   x="276.23901"
   y="276.77899"
   style="fill:#f2efed"
   width="28.09"
   height="28.059999"
   id="rect1118" />
	<rect
   x="276.23901"
   y="332.92899"
   style="fill:#f2efed"
   width="28.09"
   height="28"
   id="rect1120" />
	<rect
   x="248.05901"
   y="248.649"
   style="fill:#f2efed"
   width="28.139999"
   height="28.09"
   id="rect1122" />
	<rect
   x="248.05901"
   y="304.86899"
   style="fill:#f2efed"
   width="28.139999"
   height="28.01"
   id="rect1124" />
	<rect
   x="248.05901"
   y="360.96899"
   style="fill:#f2efed"
   width="28.139999"
   height="28.049999"
   id="rect1126" />
</g>
<g
   id="g1130"
   transform="translate(-95.551998,-95.551998)">
</g>
<g
   id="g1132"
   transform="translate(-95.551998,-95.551998)">
</g>
<g
   id="g1134"
   transform="translate(-95.551998,-95.551998)">
</g>
<g
   id="g1136"
   transform="translate(-95.551998,-95.551998)">
</g>
<g
   id="g1138"
   transform="translate(-95.551998,-95.551998)">
</g>
<g
   id="g1140"
   transform="translate(-95.551998,-95.551998)">
</g>
<g
   id="g1142"
   transform="translate(-95.551998,-95.551998)">
</g>
<g
   id="g1144"
   transform="translate(-95.551998,-95.551998)">
</g>
<g
   id="g1146"
   transform="translate(-95.551998,-95.551998)">
</g>
<g
   id="g1148"
   transform="translate(-95.551998,-95.551998)">
</g>
<g
   id="g1150"
   transform="translate(-95.551998,-95.551998)">
</g>
<g
   id="g1152"
   transform="translate(-95.551998,-95.551998)">
</g>
<g
   id="g1154"
   transform="translate(-95.551998,-95.551998)">
</g>
<g
   id="g1156"
   transform="translate(-95.551998,-95.551998)">
</g>
<g
   id="g1158"
   transform="translate(-95.551998,-95.551998)">
</g>
</svg>